<?xml version="1.0" encoding="utf-8"?>
<!-- Generator: Adobe Illustrator 25.0.0, SVG Export Plug-In . SVG Version: 6.00 Build 0)  -->
<svg version="1.1" id="猫" xmlns="http://www.w3.org/2000/svg" xmlns:xlink="http://www.w3.org/1999/xlink" x="0px" y="0px"
	 viewBox="0 0 1920 1080" style="enable-background:new 0 0 1920 1080;" xml:space="preserve">
<style type="text/css">
	.st0{fill:none;stroke:#FFFFFF;stroke-width:0.4;stroke-miterlimit:10;}
	.st1{fill:none;stroke:#FFFFFF;stroke-width:0.2;stroke-miterlimit:10;}
</style>
<g>
	<path class="st0" d="M698.12,635.15c-3.4-1.24-5.59-3.91-8.85-4.97c-3.25-1.06-11.33-1.61-14.38-1.61s-4.35,0.69-4.35,0.69
		s-0.4-0.53-0.35-1.28c0.05-0.75,0.4-1.28,0.73-2.39s0.57-1.97,0.16-2.28s-1.64,1.15-2.56,1.5s-3.36-0.02-4.48-0.04
		c-1.11-0.02-2.72-0.04-3.25-0.57c-0.53-0.53-1.21-1.48-1.96-2.01c-0.75-0.53-1.19-0.35-1.19-0.35s-0.71,1.27-0.48,2.38
		s0.3,2.08,0.3,2.08s0.13,1.37-0.29,2.33c-0.63,1.45-1.4,4.84-1.4,8.17s0.76,4.69,0.77,4.74c0.13,0.58-2.26,1.59-2.97,1.79
		s-2.12,0.04-3.11,0.69c-1.53,1-1.49,2.26-0.34,2.63s2.56,0.14,3.49,0.05c0.93-0.09,3.12-0.62,4.02-1.24
		c0.9-0.62,1.21-0.95,1.21-0.95s1.35,1.15,4,1.46c2.65,0.31,3.47,0.26,3.47,0.26s-0.24,0.3,0.64,0.77c0.88,0.47,3.32,0.27,5.33,0.25
		c2.09-0.02,4.14-1.55,4.14-1.55s3.41,0.24,6.31,0.27c2.88,0.03,9.18-0.4,9.18-0.4s0.05-1.27,1.69-1.67c1.64-0.4,6.4,1.02,7.9,0.76
		c1.5-0.26-1.94,0.29-2.38,0.84c-0.44,0.55-0.16,1.79,2.75,1.9c2.91,0.11,2.51-1.06,4.23-1.72c1.72-0.66,1.35-1.54,1.35-1.54
		s0.14-1.79-0.98-2.87s-0.68-2.27,2.67-2.27c3.35,0,7.14-2.67,6.11-8.3c-1.04-5.63-6.15-6.19-9.58-4.71
		c-3.43,1.48-3.63,5.19-0.72,5.07c2.87-0.12,4.93-2.97,6.03,1.12c1.2,4.48-4.43,3.59-8.1,3.47
		C699.24,635.53,698.12,635.15,698.12,635.15z"/>
	<path class="st0" d="M697.98,644.38c0,0-0.27,1.15-1.38,1.6s-2.21,1.18-3.42,0.81c-1.21-0.37-1.24-1.23-1.24-1.23"/>
	<path class="st1" d="M665.97,630.75c0,0,0,0.33,0.16,0.6s0.75,0.44,1.32,0.22c0.57-0.22,0.64-1.06,0.62-1.44
		c-0.02-0.38-0.09-0.55-0.09-0.55s-0.75-0.07-1.39,0.35s-0.71,0.93-0.82,1.55c-0.11,0.62,0.18,1.26,0,1.83
		c-0.18,0.57-0.44,0.57-0.77,0.84c-0.33,0.27-0.31,0.51-0.77,0.44c-0.46-0.07-0.07-0.55-0.57-0.75c-0.49-0.2-0.55-0.57-0.49-1.43
		c0.05-0.86-0.24-1.97-0.97-2.72c-0.73-0.75-1.97-0.27-1.97-0.27s-0.04,0.76,0.23,1.21c0.27,0.45,0.44,0.68,1.06,0.79
		c0.62,0.11,1.38-0.55,1.38-0.55"/>
	<path class="st1" d="M662.99,635.34c0,0,1.06-0.06,1.22-0.2c0.16-0.14,0.29,0.07,0.62,0.13c0.33,0.06,0.74,0.07,0.74,0.07"/>
	<line class="st1" x1="664.34" y1="634.6" x2="664.32" y2="635.09"/>
	<path class="st1" d="M658.53,632.97c0,0,0.88-0.11,1.61,0.58c0.73,0.69,1.16,2.02,2.68,2.45s2.03,0.41,2.94-0.11
		c0.9-0.52,1.15-1.05,1.67-1.48"/>
	<path class="st1" d="M670.23,627.73c0,0-0.15,0.57-0.1,2.02c0.05,1.45-0.52,3.1-1.3,3.66c-0.78,0.56-1.39,1.01-1.39,1.01"/>
</g>
</svg>
