<svg xmlns="http://www.w3.org/2000/svg" viewBox="0 0 1920 1080"><defs><style>.a,.b{fill:none;stroke:#fff;stroke-miterlimit:10;}.a{stroke-width:0.4px;}.b{stroke-width:0.2px;}</style></defs><path class="a" d="M657.66,621.84a4.06,4.06,0,0,0-.48,2.38,17.83,17.83,0,0,1,.3,2.08,5.7,5.7,0,0,1-.28,2.33,24.1,24.1,0,0,0-1.4,8.18,11,11,0,0,0,.77,4.74c.13.57-2.26,1.59-3,1.79s-2.12,0-3.11.69c-1.53,1-1.49,2.26-.34,2.63a9.14,9.14,0,0,0,3.49,0,11.54,11.54,0,0,0,4-1.24,8.48,8.48,0,0,0,1.2-1,7.92,7.92,0,0,0,4,1.46,24.45,24.45,0,0,0,3.48.26s-.24.3.63.76,3.32.27,5.33.25a8.28,8.28,0,0,0,4.14-1.55s3.42.24,6.31.27,9.19-.39,9.19-.39a2,2,0,0,1,1.69-1.68c1.64-.4,6.39,1,7.89.77s-1.94.29-2.37.84-.17,1.79,2.75,1.9,2.51-1.06,4.23-1.72,1.35-1.54,1.35-1.54a60,60,0,0,0,9.07,3c3.29.59,7.38-2.3,6-3.54s-8.1.64-15.64-4.29a32,32,0,0,0-8.78-4.13c-3.4-1.24-5.59-3.91-8.84-5s-11.34-1.61-14.39-1.61a10,10,0,0,0-4.35.7,2.06,2.06,0,0,1-.35-1.28,13.9,13.9,0,0,1,.74-2.4c.32-1.11.56-2,.16-2.28s-1.65,1.15-2.56,1.5-3.36,0-4.48,0-2.72,0-3.25-.57a16.68,16.68,0,0,0-2-2C658.09,621.66,657.66,621.84,657.66,621.84Z"/><path class="a" d="M698,644.38A2.48,2.48,0,0,1,696.6,646c-1.12.44-2.22,1.18-3.42.81s-1.24-1.23-1.24-1.23"/><path class="b" d="M666,630.75a1.29,1.29,0,0,0,.17.6,1.15,1.15,0,0,0,1.31.22c.57-.22.64-1.06.62-1.45a1.41,1.41,0,0,0-.09-.54,2.35,2.35,0,0,0-1.39.34,2,2,0,0,0-.82,1.56c-.11.62.18,1.26,0,1.82s-.44.57-.77.85-.31.51-.76.43-.08-.54-.57-.75-.55-.56-.49-1.42a3.74,3.74,0,0,0-1-2.72,2,2,0,0,0-2-.28,2.58,2.58,0,0,0,.23,1.21,1.3,1.3,0,0,0,1.06.79c.62.11,1.38-.55,1.38-.55"/><path class="b" d="M663,635.34a4.94,4.94,0,0,0,1.22-.2c.15-.14.29.07.61.13a5.79,5.79,0,0,0,.75.07"/><line class="b" x1="664.34" y1="634.6" x2="664.32" y2="635.09"/><path class="b" d="M658.53,633a2.14,2.14,0,0,1,1.61.58c.73.7,1.16,2,2.68,2.45s2,.42,2.94-.11a8.56,8.56,0,0,0,1.67-1.48"/><path class="b" d="M670.23,627.73a7.47,7.47,0,0,0-.11,2,4.81,4.81,0,0,1-1.3,3.66l-1.39,1"/></svg>