<?xml version="1.0" encoding="utf-8"?>
<!-- Generator: Adobe Illustrator 25.0.0, SVG Export Plug-In . SVG Version: 6.00 Build 0)  -->
<svg version="1.1" xmlns="http://www.w3.org/2000/svg" xmlns:xlink="http://www.w3.org/1999/xlink" x="0px" y="0px"
	 viewBox="0 0 1920 1080" style="enable-background:new 0 0 1920 1080;" xml:space="preserve">
<style type="text/css">
	.st0{fill:none;}
	.st1{fill:none;stroke:#FFFFFF;stroke-width:1.44;}
	.st2{fill:url(#SVGID_1_);fill-opacity:0.5;stroke:#FFFFFF;stroke-width:1.1;stroke-miterlimit:10;}
	.st3{fill:url(#SVGID_2_);fill-opacity:0.5;stroke:#FFFFFF;stroke-width:1.1;stroke-miterlimit:10;}
	.st4{fill:none;stroke:#FFFFFF;stroke-width:1.1;stroke-miterlimit:10;}
	.st5{fill:none;stroke:#FFFFFF;stroke-width:0.75;stroke-miterlimit:10;}
	.st6{fill:none;stroke:#FFFFFF;stroke-width:0.4;stroke-miterlimit:10;}
	.st7{fill:none;stroke:#FFFFFF;stroke-width:0.2;stroke-miterlimit:10;}
	.st8{display:none;}
	.st9{display:inline;fill:none;stroke:#FFFFFF;stroke-width:0.75;stroke-miterlimit:10;}
	.st10{display:inline;fill:none;stroke:#FFFFFF;stroke-width:0.4;stroke-miterlimit:10;}
	.st11{display:inline;fill:none;stroke:#FFFFFF;stroke-width:0.2;stroke-miterlimit:10;}
</style>
<pattern  width="72" height="72" patternUnits="userSpaceOnUse" id="_x31_0_lpi_20_x25_" viewBox="72.25 -72 72 72" style="overflow:visible;">
	<g>
		<rect x="72.25" y="-72" class="st0" width="72" height="72"/>
		<g>
			<line class="st1" x1="144" y1="-3.6" x2="216.5" y2="-3.6"/>
			<line class="st1" x1="144" y1="-18" x2="216.5" y2="-18"/>
			<line class="st1" x1="144" y1="-32.4" x2="216.5" y2="-32.4"/>
			<line class="st1" x1="144" y1="-46.8" x2="216.5" y2="-46.8"/>
			<line class="st1" x1="144" y1="-61.2" x2="216.5" y2="-61.2"/>
			<line class="st1" x1="144" y1="-10.8" x2="216.5" y2="-10.8"/>
			<line class="st1" x1="144" y1="-25.2" x2="216.5" y2="-25.2"/>
			<line class="st1" x1="144" y1="-39.6" x2="216.5" y2="-39.6"/>
			<line class="st1" x1="144" y1="-54" x2="216.5" y2="-54"/>
			<line class="st1" x1="144" y1="-68.4" x2="216.5" y2="-68.4"/>
		</g>
		<g>
			<line class="st1" x1="72" y1="-3.6" x2="144.5" y2="-3.6"/>
			<line class="st1" x1="72" y1="-18" x2="144.5" y2="-18"/>
			<line class="st1" x1="72" y1="-32.4" x2="144.5" y2="-32.4"/>
			<line class="st1" x1="72" y1="-46.8" x2="144.5" y2="-46.8"/>
			<line class="st1" x1="72" y1="-61.2" x2="144.5" y2="-61.2"/>
			<line class="st1" x1="72" y1="-10.8" x2="144.5" y2="-10.8"/>
			<line class="st1" x1="72" y1="-25.2" x2="144.5" y2="-25.2"/>
			<line class="st1" x1="72" y1="-39.6" x2="144.5" y2="-39.6"/>
			<line class="st1" x1="72" y1="-54" x2="144.5" y2="-54"/>
			<line class="st1" x1="72" y1="-68.4" x2="144.5" y2="-68.4"/>
		</g>
		<g>
			<line class="st1" x1="0" y1="-3.6" x2="72.5" y2="-3.6"/>
			<line class="st1" x1="0" y1="-18" x2="72.5" y2="-18"/>
			<line class="st1" x1="0" y1="-32.4" x2="72.5" y2="-32.4"/>
			<line class="st1" x1="0" y1="-46.8" x2="72.5" y2="-46.8"/>
			<line class="st1" x1="0" y1="-61.2" x2="72.5" y2="-61.2"/>
			<line class="st1" x1="0" y1="-10.8" x2="72.5" y2="-10.8"/>
			<line class="st1" x1="0" y1="-25.2" x2="72.5" y2="-25.2"/>
			<line class="st1" x1="0" y1="-39.6" x2="72.5" y2="-39.6"/>
			<line class="st1" x1="0" y1="-54" x2="72.5" y2="-54"/>
			<line class="st1" x1="0" y1="-68.4" x2="72.5" y2="-68.4"/>
		</g>
	</g>
</pattern>
<g id="结构">
	
		<pattern  id="SVGID_1_" xlink:href="#_x31_0_lpi_20_x25_" patternTransform="matrix(0.888 -0.472 -0.2503 -0.4708 -2505.8965 -13084.9844)">
	</pattern>
	<polygon class="st2" points="478.5,390 478.5,452.09 498.85,452.09 498.85,405.65 1046.19,405.65 1046.19,464.61 1061.84,464.61 
		1061.84,405.65 1404.65,405.65 1404.65,452.09 1425,452.09 1425,390 	"/>
	
		<pattern  id="SVGID_2_" xlink:href="#_x31_0_lpi_20_x25_" patternTransform="matrix(0.888 -0.472 -0.2503 -0.4708 -2505.8965 -13084.9844)">
	</pattern>
	<polygon class="st3" points="1419.78,602.36 1419.78,597.14 1394.74,597.14 1394.74,602.36 1404.65,602.36 1404.65,686.37 
		498.85,686.37 498.85,602.36 508.76,602.36 508.76,597.14 482.67,597.14 482.67,602.36 478.5,602.36 478.5,703.07 1425,703.07 
		1425,602.36 	"/>
	<polygon class="st4" points="498.33,597.14 482.67,597.14 482.67,602.36 478.5,602.36 478.5,452.09 498.33,452.09 	"/>
	<polygon class="st4" points="1425,602.36 1419.78,602.36 1419.78,597.14 1405.17,597.14 1405.17,452.09 1425,452.09 	"/>
	<rect x="1046.19" y="464.61" class="st4" width="15.65" height="221.23"/>
</g>
<g id="家具">
	<polyline class="st5" points="789.34,589.84 835.39,589.84 835.39,685.85 564.07,685.85 564.07,589.84 746.41,589.84 	"/>
	<rect x="578.68" y="647.24" class="st5" width="241.82" height="38.61"/>
	<rect x="563.68" y="622.24" class="st5" width="14.82" height="63.26"/>
	<rect x="820.68" y="622.24" class="st5" width="14.82" height="63.26"/>
	<rect x="866.7" y="621" class="st5" width="179.49" height="64.85"/>
	<rect x="872.96" y="626.9" class="st5" width="166.85" height="53.9"/>
	<rect x="1266.5" y="491.66" class="st5" width="116" height="4.17"/>
	<rect x="1175.85" y="602.88" class="st5" width="182.1" height="5.62"/>
	<rect x="1183.5" y="608.5" class="st5" width="5" height="77.35"/>
	<rect x="1346.5" y="608.5" class="st5" width="5" height="77.35"/>
	<rect x="1217.6" y="523.05" class="st5" width="111.66" height="58.19"/>
	<rect x="1121.5" y="684.5" class="st5" width="36" height="2"/>
	<rect x="1137.2" y="534.53" class="st5" width="4.3" height="149.97"/>
	
		<rect x="448.22" y="487.59" transform="matrix(-1.836970e-16 1 -1 -1.836970e-16 976.0008 4.3912)" class="st6" width="75.17" height="5.22"/>
	
		<rect x="453.44" y="556.43" transform="matrix(-1.836970e-16 1 -1 -1.836970e-16 1050.0624 68.0173)" class="st6" width="75.17" height="5.22"/>
	
		<rect x="1380.11" y="487.59" transform="matrix(-4.484165e-11 1 -1 -4.484165e-11 1907.8911 -927.499)" class="st6" width="75.17" height="5.22"/>
	
		<rect x="1374.89" y="556.43" transform="matrix(-4.496333e-11 1 -1 -4.496333e-11 1971.5171 -853.4376)" class="st6" width="75.17" height="5.22"/>
	<rect x="1120.55" y="489.66" class="st5" width="37.57" height="44.87"/>
	<polygon class="st5" points="924.1,604.5 886.53,604.84 890.53,569.97 920.1,569.97 	"/>
	<path class="st5" d="M724.03,405.65c-4.01,10.67-14.31,18.26-26.38,18.26c-12.07,0-22.37-7.59-26.38-18.26"/>
	<rect x="1315.07" y="632" class="st5" width="25.05" height="54.37"/>
	<rect x="1263.51" y="581.24" class="st5" width="21.91" height="19.26"/>
	<rect x="1248.5" y="600.5" class="st5" width="52" height="2"/>
	<rect x="1071.02" y="608.5" class="st5" width="66.18" height="77.5"/>
</g>
<g id="装饰">
	<polyline class="st6" points="962.98,584.59 962.98,575.1 999.51,575.1 999.51,621.01 962.98,621.01 	"/>
	<rect x="872.96" y="637.8" class="st6" width="6.26" height="42.79"/>
	<rect x="879.22" y="637.8" class="st6" width="6.26" height="42.79"/>
	<rect x="885.48" y="643.02" class="st6" width="8.35" height="37.57"/>
	<rect x="893.83" y="646.15" class="st6" width="5.22" height="34.44"/>
	<rect x="899.05" y="646.15" class="st6" width="3.13" height="34.44"/>
	<rect x="902.18" y="646.15" class="st6" width="6.26" height="34.44"/>
	
		<rect x="912.79" y="646.55" transform="matrix(0.9734 -0.2291 0.2291 0.9734 -127.6756 227.215)" class="st6" width="4.17" height="34.01"/>
	
		<rect x="1037.21" y="641.65" transform="matrix(0.9983 0.0588 -0.0588 0.9983 40.6365 -59.8337)" class="st7" width="1.25" height="38.98"/>
	
		<rect x="1035.98" y="641.65" transform="matrix(0.9983 0.0588 -0.0588 0.9983 40.6344 -59.7614)" class="st7" width="1.25" height="38.98"/>
	
		<rect x="1031.36" y="641.96" transform="matrix(0.9861 0.1661 -0.1661 0.9861 124.2121 -162.2353)" class="st7" width="1.25" height="38.98"/>
	
		<rect x="1029.97" y="642.03" transform="matrix(0.9861 0.1661 -0.1661 0.9861 124.2045 -162.0034)" class="st7" width="1.25" height="38.98"/>
	
		<rect x="1022.25" y="643.07" transform="matrix(0.9137 0.4063 -0.4063 0.9137 357.4739 -358.4697)" class="st7" width="1.25" height="38.98"/>
	
		<rect x="1028.7" y="640.6" transform="matrix(0.9861 0.1661 -0.1661 0.9861 124.0525 -161.8037)" class="st7" width="1.25" height="40.21"/>
	
		<rect x="1033.81" y="642.63" transform="matrix(0.9945 0.1051 -0.1051 0.9945 75.267 -105.0413)" class="st7" width="1.25" height="38.2"/>
	<rect x="934.53" y="584.49" class="st6" width="36.52" height="36.52"/>
	<rect x="1005.49" y="607.68" class="st6" width="12.1" height="13.32"/>
	<rect x="1005.49" y="605.12" class="st6" width="12.1" height="2.55"/>
	<rect x="972.04" y="673.28" class="st6" width="41.74" height="7.51"/>
	<rect x="970.37" y="665.77" class="st6" width="41.74" height="7.51"/>
	<rect x="972.04" y="659.92" class="st6" width="41.74" height="5.84"/>
	<rect x="1078.65" y="604.84" class="st6" width="28.94" height="3.77"/>
	<rect x="1080.37" y="601.9" class="st6" width="28.37" height="3.05"/>
	<rect x="1113.89" y="593.38" class="st6" width="8.33" height="15.12"/>
	<rect x="1318.07" y="643" class="st6" width="18.93" height="4"/>
	<polygon class="st6" points="1384,686.37 1363.07,686.37 1360.07,650 1387,650 	"/>
	<rect x="1021.07" y="533.97" class="st6" width="14.93" height="15.03"/>
	<rect x="844.07" y="659.97" class="st6" width="14.93" height="15.03"/>
	<rect x="1027.07" y="537.97" class="st6" width="2.93" height="7.03"/>
	<rect x="1281.64" y="463.48" class="st6" width="22.96" height="28.18"/>
	<polygon class="st7" points="1363.96,573.71 1354.97,574.64 1353.78,563.16 1365.14,561.99 1366.08,571.05 	"/>
	<rect x="1309.53" y="468.7" class="st6" width="22.96" height="22.96"/>
	<rect x="849" y="663" class="st6" width="5" height="3"/>
	<rect x="849" y="670" class="st6" width="5" height="3"/>
	
		<rect x="1195.16" y="659.97" transform="matrix(-1 -4.484425e-11 4.484425e-11 -1 2405.2554 1334.9746)" class="st6" width="14.93" height="15.03"/>
	<rect x="1201" y="662" transform="matrix(-1 -4.502011e-11 4.502011e-11 -1 2406 1329)" class="st6" width="4" height="5"/>
	<rect x="1201" y="670" transform="matrix(-1 -1.819002e-11 1.819002e-11 -1 2406 1342)" class="st6" width="4" height="2"/>
	<path class="st6" d="M1202.99,667c0,0,0.02,0.93,1.23,1.86c1.21,0.93,2.43,0,3.64,3.72c0,0,0.54,6.51,2.02,9.38S1216,685,1216,685"
		/>
	<path class="st6" d="M1141.5,681.47c0,0,2-2.97,9-1.97s7.62,6.74,18.31,6.87"/>
	<path class="st6" d="M1201,671c0,0-4.12,0.5-4.81,4c-0.69,3.5,0.31,7.5-1.69,9.5s-8.07,2-8.07,2"/>
	<path class="st6" d="M1237.44,602.88c0,0,0.56-1.53,2.56-2.34s3.99-0.47,6.54,0c0.54,0.1,1.19,0.19,1.91,0.26"/>
	<rect x="1216" y="683" class="st6" width="20" height="3"/>
	<rect x="938.16" y="677.84" class="st6" width="20" height="3"/>
	<rect x="1219" y="680" class="st6" width="2" height="3"/>
	<rect x="1223.3" y="680" class="st6" width="2" height="3"/>
	<rect x="947.32" y="674.84" class="st6" width="2" height="3"/>
	<rect x="942.47" y="674.84" class="st6" width="2" height="3"/>
	<rect x="1230" y="681" class="st6" width="3" height="2"/>
	<path class="st6" d="M1236.34,608.5c0,0-1.34,6.5-1.34,12.5s-1,22.21-5,29.1c-4,6.9-8,13.9-9,18.9s-1,11-1,11"/>
	<path class="st6" d="M1233,682c0,0,1.88-1,4.44,0c2.56,1,4.62,4.74,12.59,4.37c7.97-0.37,28.76-0.37,32.36-1.37
		c3.61-1,7.86-0.31,12.73,0.85C1300,687,1308.4,686,1309.2,681s5.87-8.15,5.87-8.15"/>
	<path class="st6" d="M1303.19,608.39c1.12,5.13,2.38,10.27,3.81,13.61c3,7,8.07,19.54,8.07,19.54"/>
	<path class="st6" d="M1295,581.24c0,0,4.22,5.76,5.62,12.76c0.43,2.16,0.91,5.44,1.44,9.09"/>
	<path class="st6" d="M1318,601c-0.74-1.17-2.64-2-4.87-2c-2.23,0-4.13,0.83-4.87,2l0.87,1.88l8.17,0.03L1318,601z"/>
	<path class="st6" d="M1331.56,632c0,0,1.57-2,2.57-8s0-6.8,0-11.9c0-1.26-0.02-2.52-0.03-3.71"/>
	<path class="st6" d="M1256.77,600.5c0,0,2.23-0.5,3.23-4.5s1.65-14.76,1.65-14.76"/>
	<path class="st6" d="M1334.13,602.88c0,0-0.13-0.88,0.87-1.88s5,0,4,1s-5.94-0.53-9.47-0.27C1326,602,1327,603,1325,603
		s-3.14-0.04-4-1s-3-1-3-1"/>
	<rect x="928" y="511" transform="matrix(0.7071 -0.7071 0.7071 0.7071 -96.9825 823.8635)" class="st6" width="36" height="36"/>
	<g>
		<path class="st6" d="M952.64,541.78c0,0-1.32,0-2.65-1.32c-1.32-1.32-1.32-2.45,0-1.88c1.32,0.56,2.65-0.76,2.65-0.76
			s1.32-1.32,2.65,0"/>
		<path class="st6" d="M945.39,539.82c0,0-2.59,0-4.14,0.52c-1.55,0.52-2.07,1.04-2.07,1.04l4.14-4.14c0,0,2.07-1.47,2.07-3.07
			s-1.04-4.7-1.04-4.7"/>
		<path class="st6" d="M945.39,534.12l-5.18,1.55c0,0-1.55,0.52-1.55-0.52s1.04-1.04,1.04-2.07c0-1.04,0.52-1.55,1.55-2.07
			c1.04-0.52,3.11-1.55,4.66-2.59c1.55-1.04,2.07-1.04,2.07-2.07s-1.04-3.11-1.04-4.66s-1.04-3.62-2.59-3.11
			c-1.55,0.52-3.62,2.07-4.66,0.52c-1.04-1.55-2.07-3.11-2.59-2.07c-0.52,1.04-2.07,3.11-2.59,5.18c-0.52,2.07-1.04,4.14,0.52,5.18
			s3.62,0.52,5.7,0c2.07-0.52,6.73-3.11,6.73-3.11"/>
		<line class="st6" x1="941.71" y1="519.66" x2="941.71" y2="527.08"/>
		<line class="st6" x1="938.66" y1="523.77" x2="944.36" y2="522.73"/>
		<path class="st6" d="M961.45,531.02c0,0-1.82-3.11-4.02-1.81c-2.2,1.29-3.23,3.37-4.27,3.88c-1.04,0.52-2.07,0.52-2.07-0.52
			s1.04-3.62,1.55-6.21c0.52-2.59,0.52-5.18,0.52-7.25c0-2.07-1.04-3.11-1.04-3.11"/>
		<path class="st6" d="M947.46,534.64c0,0,1.55-3.11,4.14-6.21c2.59-3.11,6.21-6.73,6.21-6.73"/>
	</g>
	<circle class="st6" cx="1336" cy="637" r="1"/>
	<polyline class="st7" points="1363.96,573.71 1363.7,571.21 1366.07,570.97 	"/>
	<g>
		<line class="st7" x1="1342.4" y1="544.37" x2="1348.85" y2="544.82"/>
		<polyline class="st7" points="1352.15,547.99 1351.46,557.94 1338.58,557.05 1339.36,545.85 		"/>
		
			<rect x="1337.13" y="543.03" transform="matrix(0.8801 -0.4748 0.4748 0.8801 -97.6999 701.5932)" class="st7" width="5.87" height="2.35"/>
		
			<rect x="1348.75" y="545.02" transform="matrix(0.7569 0.6535 -0.6535 0.7569 685.4524 -750.5396)" class="st7" width="5.87" height="2.35"/>
	</g>
	<path class="st6" d="M866.56,675.34c-1.78-1.27-3.67-2.23-5.56-2.66c-3-0.68-7-0.68-7-0.68"/>
	<path class="st6" d="M951.75,584.49c0,0,0.25-4.03,2.25-8.08c2-4.06,3-12.17,3-17.24c0-5.07-2.1-10.16-4.05-11.68"/>
	<g class="st8">
		<rect x="617.29" y="469.83" class="st9" width="165.92" height="97.05"/>
		<rect x="623.55" y="487.57" class="st6" width="36" height="23.48"/>
		<rect x="635.03" y="518.36" class="st6" width="29.74" height="31.31"/>
		<rect x="684.08" y="486.53" class="st6" width="31.83" height="17.22"/>
		<rect x="717.47" y="490.18" class="st6" width="44.35" height="38.61"/>
		<rect x="689.3" y="513.66" class="st6" width="26.61" height="32.87"/>
		<rect x="742.52" y="541.84" class="st6" width="24.52" height="15.13"/>
	</g>
	<g>
		<path class="st5" d="M645.36,478.21c0,0-6.66,2.56-14.34,1.54s-9.6-2.59-13.51,0.24c-3.91,2.83-2.88,6.42-2.37,7.44
			s3.07,0,5.12-1.02s7.17-3.07,8.19-0.51s-1.02,6.66-2.56,10.24s-2.05,10.76,0.51,13.32s7.68,8.71,13.83,9.73s15.36,0,18.44,0.51
			s5.63,3.59,7.68,6.66s5.12,4.1,7.68,5.12s3.07,4.61,1.02,7.68s-0.51,4.1-1.54,6.66s-4.1,3.07-5.63,5.12s-0.51,3.59-2.05,5.63
			c-1.54,2.05-4.1,3.07-4.1,6.15s1.54,6.15,0,7.17s-4.1-1.54-5.12-5.12s-2.56-10.24-2.56-14.85s-1.02-8.19-4.1-10.24
			s-5.63-5.12-5.12-9.22s4.1-9.73,1.54-12.8s-8.71-6.15-9.22-8.19s1.02-4.1,3.59-3.07s5.12,2.56,6.15,0.51
			c1.02-2.05-0.51-6.15,2.56-7.17s6.66-0.51,7.68-2.56s0-4.1,2.56-4.61s7.17-2.05,5.63-5.12s-3.59-5.63-6.15-4.61
			s-3.59,3.59-5.63,4.1s-4.1,1.02-4.1-1.54s2.05-5.12,6.15-5.63s8.19,0,12.29,2.56s8.71,3.59,11.78,4.1s9.73,3.07,10.24,5.12
			s0.51,4.1-2.05,5.63c-2.56,1.54-3.58,2.05-2.56,4.1c1.02,2.05,0.51,4.1-1.02,6.66s-2.56,3.07-2.56,6.15s-1.54,9.73,2.05,11.27
			c3.58,1.54,6.15,0.51,8.19-0.51s4.1-1.02,5.12,1.02s3.59,6.15,2.56,10.24s-2.56,8.19-0.51,11.78s2.56,5.12,5.63,5.12
			s4.61-2.56,5.63-6.15s3.07-5.12,4.61-7.17s2.05-7.68,2.05-9.73s1.54-4.1,4.1-6.15s0.51-6.66-3.07-7.68s-7.68-8.71-9.22-11.78
			c-1.54-3.07-6.15-6.66-9.22-6.66s-5.12,0.51-3.59,2.05s3.07,2.56,7.17,2.56s9.22-1.02,10.76,1.02c1.54,2.05,3.59,7.68,5.63,9.22
			s5.12,2.56,6.66,1.54s1.54-2.05-0.51-3.59s-5.12-3.59-2.56-4.61c2.56-1.02,3.07-1.54,4.61,1.02c1.54,2.56,2.05,5.12,4.61,5.12
			s4.1,1.02,4.1,4.1s0.51,7.68,3.07,6.15s3.07-3.07,3.59-6.66s3.07-3.59,5.12-3.07s4.61,1.54,5.12,5.12s1.02,6.66,3.07,9.73
			c2.05,3.07,3.59,5.12,6.15,5.12s3.59-2.05,5.63-1.54s6.15,5.63,5.12,9.22s-2.56,6.66-5.63,9.22s-3.07,5.63-5.12,5.63
			s-2.05-3.59-2.05-6.15s-1.02-4.61-4.61-3.59c-3.59,1.02-4.61,4.1-7.68,3.59s-3.07-1.54-3.07-4.61s0.51-5.63,4.1-7.17
			s6.66-2.05,7.68-4.61c1.02-2.56,0.16-5.92,0.34-8.34c0.17-2.42,2.74-3.44,2.74-5.49s-3.07-4.61-3.07-6.66s2.56-2.05,5.63-2.05
			s5.63-0.51,4.1-3.59c-1.54-3.07-3.59-6.66-1.02-7.68s5.12-3.07,3.07-6.66s-6.15-5.12-6.15-6.66s3.07-1.54,5.12-1.02
			s3.07,1.02,5.12,3.59s3.59,5.12,4.61,3.59s0-3.59,1.02-5.12s4.1-1.54,3.59-3.59s-3.59-3.59-10.24-3.59s-8.71-0.51-11.78-2.05
			s-6.66-1.54-8.19,0s-3.07,2.05-6.66,1.02s-7.64-5.38-15.34-2.18c-7.7,3.2-13.34,7.81-16.92,8.32s-7.17-2.05-11.78-2.05
			s-6.15,2.56-5.12,4.1s5.12,2.56,7.68,0s5.63-5.63,8.71-9.73s6.69-5.51,10.69-6.51c3.81-0.95,11.42-0.95,11.42-0.95"/>
		<polyline class="st5" points="734.56,469.21 788.84,469.21 788.84,564.28 666.17,564.28 		"/>
		<path class="st5" d="M652.7,564.4h-41.03v-95.19h48.85c0,0,6.46,0,3.6,1.9c-2.86,1.9-18.77,7.09-18.77,7.09"/>
	</g>
	<rect x="902.18" y="604.84" class="st6" width="7.3" height="14.76"/>
	<rect x="897.41" y="619.6" class="st6" width="16.64" height="1.4"/>
	<path class="st6" d="M666.17,564.5c0,0-1.9,0.16-1.97,2.65c-0.06,2.49,1.05,6.89,5.84,10.24s12.45,12.45,12.45,12.45"/>
	<path class="st6" d="M849,664.65c0,0-3.39,0.41-6.04,2.46s-7.46,1.21-7.46,1.21"/>
	<path class="st6" d="M908.44,679.17c0,0,3.26,0.14,5.22,0.77c1.96,0.62,2.92,0,2.92,0"/>
	<path class="st6" d="M920.69,679.17c0,0,3.17-0.86,6.01-0.45c2.84,0.41,3.19,1.12,6.54,1.31s4.91-0.34,4.91-0.34"/>
	<path class="st6" d="M909.49,617.45c0,0,2.6-0.06,4.39,1.4s3.83,2.16,3.83,2.16"/>
	<path class="st6" d="M928.43,626.9c0,0,6.19,2.23,7.21,7.59c1.02,5.36-0.85,6.89-1.64,14.04s0.33,23.04,1.67,26.07
		c1.34,3.03,2.49,3.73,2.49,3.73"/>
	<path class="st6" d="M943.59,674.84c0,0,0.19-1.1-0.73-1.48s-1.88,0.86-2.17,2.23c-0.29,1.37,0,2.14,0,2.14"/>
	<path class="st6" d="M947.46,626.9c0,0-1.02,7.79,0.85,17.17s2.11,13.15,1,18.57s-1.16,12.2-1.16,12.2"/>
	<polygon class="st6" points="522.54,685.25 518.7,664.33 544.11,664.33 540.78,685.25 	"/>
	<rect x="523.13" y="685.25" class="st6" width="17.05" height="1.12"/>
	<path class="st6" d="M531.31,661.57c0,0-1.15-3.43-2.07-4.74s-4.37-7.04-5.33-9.41c-0.96-2.37-3.2-7.21-3.65-11.05
		c-0.45-3.84-0.55-6.31,0-7.72c0.55-1.41,0.94-3.77,0.94-3.77"/>
	<path class="st6" d="M527.21,664.33c0.19-0.99-0.06-4.03-0.8-6.34c-0.74-2.3-4.16-10.85-4.35-12.32c-0.19-1.47-2.61-6.46-2.88-7.71
		c-0.27-1.25-0.94-5.34,0-7.89s2.02-5.18,2.02-5.18s0.64,0.11,0.64,2.83c0,2.72,0.7,8.7,1.95,11.68c1.25,2.98,4.03,7.84,4.03,7.84
		s-1.02-7.04-1.25-9.82c-0.22-2.78-1.28-10.18-1.76-12.53c-0.48-2.35-0.48-5.55,0.93-8.14c1.41-2.59,3.81-6.02,3.81-6.02
		s1.22,2.27,1.76,3.62c0.54,1.34,2.27,4.06,2.88,5.7c0.61,1.63,1.57,3.78,0.86,5.66c-0.7,1.89-0.83,3.68-0.83,3.68"/>
	<path class="st6" d="M529.24,656.84c0,0-1.03-6.37-1.16-8.32c-0.13-1.95-0.03-2.91,0.77-5.63c0.8-2.72,3.62-10.02,5.09-13.09
		s2.67-6.43,4.46-8.69c1.79-2.26,2.88-4.35,2.88-4.35s0.83,2.43,1.34,4.61c0.51,2.18,1.49,7.1,1,8.98c-0.49,1.88-0.63,2.7-1.64,4.5
		c-1.01,1.79-2.96,7.04-2.96,7.04s-2.72,8.86-2.93,10.37s-0.09,2.18-0.09,2.18"/>
	<path class="st6" d="M530.41,664.33c0,0,1.07-4.05,3.71-7.49s4.61-5.29,6.87-7.9c2.26-2.62,3.18-3.63,3.34-5.71
		c0.16-2.07-0.22-5.7-0.22-5.7s-0.35,4.91-1.38,7.12c-1.02,2.21-2.05,3.68-3.62,4.83c-1.57,1.15-2.93,2.27-2.93,2.27"/>
	<path class="st6" d="M542.39,634.06c0,0,1.38,3.39,1.51,5.44"/>
	<path class="st6" d="M544.37,643.72c0,0-0.42,4-1.57,5.7c-1.15,1.7-2.43,6.37-3.2,8.64s-1.95,6.27-1.95,6.27"/>
	<g class="st8">
		<path class="st10" d="M1374.95,489.82c-0.2,0-13.33,0-13.33,0l0.59,1.76h12.09L1374.95,489.82z"/>
		<polygon class="st10" points="1374.95,482.34 1361.88,482.34 1362.8,489.82 1373.67,489.82 		"/>
		<path class="st11" d="M1370.36,473.77c0,0-4.21-0.98-5.59-0.24c-1.37,0.73-2.25,2.06-1.81,2.99c0.44,0.93,1.6,1.35,2.45,1.27
			C1368.15,477.54,1369.53,476.52,1370.36,473.77z"/>
		<path class="st11" d="M1363.72,477.45c0,0-1.25,3.28-3.45,5.24s-2.84,3.97-4.75,4.55c-1.91,0.59-2.45,0.73-2.45,0.73
			s-0.26-2.14-1.96-2.86s-2.74-0.46-3.85-0.13c-1.11,0.33,0.98,1.08,1.83,2.99c0.85,1.91,0.98,2.63,2.35,2.73s1.64-2.66,1.64-2.66"
			/>
		<path class="st11" d="M1370.61,471.67c0,0,2.12-0.49,1.8-2.55c-0.33-2.06,0-3.23-2.84-4.57c-2.84-1.34-4.44-1.44-4.44-1.44
			s-0.49,0.91,0.82,2.68s3.17,2.91,3.85,4.08C1370.47,471.05,1370.61,471.67,1370.61,471.67z"/>
		<path class="st11" d="M1372.44,469.35c0,0,1.73-1.31,2.06-3.1s-0.91-2.29-2.25-4.28c-1.34-1.99-0.49-2.02-0.49-2.02
			s-0.62-0.29-0.82,1.27c-0.2,1.57-0.42,2.52,0.1,4.22"/>
		<path class="st11" d="M1357.87,477.8c0,0,0.93,0.14,0.88,1.85c-0.05,1.71-0.28,2.57,0.73,2.69c1.02,0.13,1.9-0.84,1.9-0.84"/>
		<path class="st11" d="M1357.87,474.66c0,0,0.73,0.1,0.98,1.13c0.24,1.03-0.29,2.4-2.06,2.25c-1.76-0.15-2.99-1.27-4.36-1.27
			c-1.37,0-2.3-0.17,0-1.23C1354.73,474.46,1356,473.97,1357.87,474.66z"/>
		<path class="st11" d="M1377.89,482.77c0,0,2.35,1.04,3.79,4.31c1.44,3.26,2.09,6.86,3.66,9.4c0,0,0.65,1.34,2.03,2.19"/>
		<path class="st11" d="M1377.5,484.79c0,0,2.06-0.13,2.91,1.29c0.85,1.42,2.03,2.99,0.69,2.79c-1.34-0.2-2.74-1-3.07-2.03
			s-0.59-1.23-1.31-1.62C1375.99,484.83,1377.5,484.79,1377.5,484.79z"/>
		<path class="st11" d="M1390.37,490.7c0,0,1.6-1.57-0.78-2.68c-2.38-1.11-3.01-0.12-4.41-1.18c-1.4-1.07-1.21-0.48-0.59,1.51
			c0.62,1.99-0.46,4.28,0.75,4.83c1.21,0.56,2.84,0.88,3.76-0.46C1390.01,491.39,1390.37,490.7,1390.37,490.7z"/>
		<path class="st11" d="M1391.35,489.99c0,0,0.03-1.35,2.71-1.28s3.72,0.52,4.7,2.19c0.98,1.67,0.98,2.77,0.98,2.77
			s-1.89-0.94-3.56-0.81c-1.67,0.13-3.89,0.2-4.61-0.42C1390.86,491.81,1391.08,490.57,1391.35,489.99z"/>
		<path class="st11" d="M1393.14,495.27c0,0,1.42-0.05,2.06,2.01c0.64,2.06,1.13,2.79,0.73,3.82s-0.24,1.13-3.28-0.39
			c-3.04-1.52-4.26-2.25-3.14-3.48S1392.16,494.91,1393.14,495.27z"/>
		<path class="st11" d="M1395.49,498.17c0.68-0.86,1.64-0.48,2.62-0.51s0.95,1.6,1.01,3.46c0.07,1.86-0.59,2.84-0.56,2.97
			c0,0-0.62-1.44-1.44-1.93s-1.29-0.8-1.29-0.8"/>
		<path class="st11" d="M1401.31,496.87c0,0-0.36,2.09-1.11,3.1c-0.75,1.01-1.07,1.34-1.07,1.34"/>
		<path class="st11" d="M1397.67,502.64c0,0-0.84,0.51-2.17,0.15c-1.34-0.36-2.15-0.46-2.9-1.34c-0.75-0.88-1.13-1.34-1.13-1.34"/>
		<path class="st11" d="M1389.11,498.01c0,0-2.53-2.75-2.99-3.72c-0.46-0.97-0.98-1.23-0.98-1.23"/>
		<path class="st11" d="M1384.77,489.3c0,0-0.6-0.82-1.98-2.32s-3.55-3.28-3.55-3.28"/>
		<path class="st11" d="M1391.09,492.14c0,0,0.23,1.68,0,2.78c-0.23,1.09-0.81,1.57-0.81,1.57"/>
		<path class="st11" d="M1387.5,498.31c0.7-1.34,1.07-1.4,1.92-2.77c0.85-1.37,1.7-3.96,1.7-3.96"/>
		<path class="st11" d="M1389.31,498.62c0,0-0.33-0.31-1.07-0.31c-0.74,0-1.41,0.72-1.12,2.15s0.78,2.22,0.37,2.78
			c-0.4,0.56,1.69,0.26,2.51-0.88c0.82-1.14,1.15-1.47,0.89-2.57"/>
		<path class="st11" d="M1401.52,492.51c0,0,0.56,0.96,0.69,2.18c0.12,1.22,0.21,2.02-0.34,2.11c-0.56,0.08-0.76,0.11-0.73-0.93
			C1401.16,494.83,1401.52,492.51,1401.52,492.51z"/>
		<path class="st11" d="M1385.97,497.43c0,0-1.68,0.64-2.3,1.1s-0.78,1.02-0.72,1.83c0.07,0.82,0.52,0.46,1.81-0.85
			C1386.06,498.21,1385.97,497.43,1385.97,497.43z"/>
		<path class="st11" d="M1389.55,471.96c0,0-0.88,1.52-2.81,1.3c-1.93-0.22-2.61,0.37-2.45,1.84c0.16,1.47-0.48,4.15,0.85,2.55
			c1.33-1.6,1.43-2.85,2.61-3.3C1388.93,473.89,1389.49,472.9,1389.55,471.96z"/>
		<path class="st11" d="M1384.77,478.14c0,0,0.39,0.27,0,1.83c-0.39,1.57-1.34,2.88-1.69,3.8s-1.49,2.35-2.62,2.08"/>
		<path class="st11" d="M1384.4,485.33c0,0,0.32-3.58-0.59-4.48s-2.62-2.18-4.09-2.28c-1.47-0.1-1.74,0.69-0.91,2.4
			s1,2.38,2.99,3.58C1383.79,485.75,1384.4,485.33,1384.4,485.33z"/>
		<path class="st11" d="M1380.45,488.89c0,0-0.18,0.55-2.27,1.1c-2.09,0.55-3.14,0.58-3.23,0.71c-0.1,0.13,0.03-1.4,0.75-2.71
			s1.8-2.22,1.8-2.22"/>
		<path class="st11" d="M1378.35,479.28c0,0-1.1,0.24-2.47-1.35s-2.94-2.48-2.94-2.48s1.31,2.4,1.61,4.19
			c0.3,1.79,1.35,3.53,2.7,3.23s2-1.01,2-1.01"/>
		<path class="st11" d="M1376.84,462.4c1.27-0.88,5.85-0.16,5.85-0.16s-0.3,1.19-1.7,2.41c-1.4,1.22-2.68,1.74-3.82,1.9"/>
		<path class="st11" d="M1378.35,466.25c0,0,0.16-0.26,1.21,0.29c1.05,0.56,2.25,0.82,4.02,1.34c1.76,0.52,2.22,2.45,2.22,2.45
			s-2.03-0.33-3.46,1.11c-1.44,1.44-2.22,2.58-3.99,1.47c-1.76-1.11-1.99-2.15-1.66-3.56c0.33-1.4,1.21-2.94,1.21-2.94"/>
		<path class="st11" d="M1372.44,469.77c0,0,0.39,0.56,2.11-0.81c1.72-1.37,1.38-0.1,2.3-1.73c0.91-1.63,0.65-1.76,0-3.62
			c-0.65-1.86,0-2.84,0-2.84s-3.72,0.31-4.41,1.49"/>
		<path class="st11" d="M1372.16,470.58c0,0,2.4,2.04,3.31,4.29s0.83,3.52,0.83,3.52"/>
		<path class="st11" d="M1375.92,476.13c0,0,1.35-0.42,2.23-1.4s0.7-1.56,0.7-1.56l-0.14,0.53l1.75,0.47
			c1.52,0.69,2.43,1.35,2.43,1.35s-0.36,0.52-1.89,0.66s-1.67,0.54-2.09,1.45c-0.42,0.91-0.42,1.12-0.42,1.12"/>
		<path class="st11" d="M1371.02,471.52c0,0,0.69,0.54-0.66,2.25"/>
		<path class="st11" d="M1372.93,475.46c0,0-1.1-0.93-1.54-1.75s-0.33-1.06-0.33-1.06"/>
		<path class="st11" d="M1374.13,478.14c0,0-1.14-1.02-1.97-1.15"/>
		<path class="st11" d="M1373.14,475.97c0,0-1.04,0.39-1.59,1.83c-0.56,1.44-1.05,2.13-1.34,2.28"/>
		<path class="st11" d="M1369.83,475.15c0,0,0.75,0.61,0.54,2.42c-0.21,1.81-0.09,1.81-0.25,2.92c-0.16,1.11,0,2.02,0,2.02"/>
		<path class="st11" d="M1368.29,477.22c0,0-0.25,1.34,0.45,2.55c0.7,1.21,0.57,2.58,0.57,2.58"/>
		<path class="st11" d="M1366.8,477.56c0,0,0.8,0.57,0.14,2.01c-0.65,1.44-0.8,1.22-1.92,1.82c-1.12,0.6-1.77,0.97-1.77,0.97"/>
		<path class="st11" d="M1365.97,477.8c0,0,0.23,1.31-1.73,2.16c-1.96,0.85-2.12,0.85-2.35,1.6v0.78"/>
		<path class="st11" d="M1368.42,479.34c0,0-0.16,0.46-0.52,1.31c-0.36,0.85-0.39,1.7-0.39,1.7"/>
		<path class="st11" d="M1366.6,480.25c0,0,0.15,0.67,0.21,1.14c0.07,0.47,0,0.97,0,0.97"/>
		<path class="st11" d="M1374.55,479.65c0,0-1.95-0.38-2.39,0.31c-0.44,0.69-1.27,1.34-1.38,1.7c-0.11,0.36-0.07,0.7-0.07,0.7"/>
		<path class="st11" d="M1374.9,480.95c0,0-0.24,1-0.36,1.2"/>
		<path class="st11" d="M1374.72,480.43c0,0-0.72-0.08-1.15,0.52s-0.95,1.4-0.95,1.4"/>
		<path class="st11" d="M1376.56,482.92c0,0-0.51,0.14-1.07,0.63s-0.94,1.16-0.94,1.16"/>
		<path class="st11" d="M1377.12,484.7c0,0-1.37-0.21-1.81,0c-0.44,0.21-0.76,0-0.76,0"/>
		<path class="st11" d="M1368.42,461.75c0,0-1.55,0.44-1.81,0.78c-0.26,0.34-0.63,0.58-0.63,0.58s-2.72-3.06-3.6-3.19
			s0.56-0.65,1.76,0c1.2,0.65,1.48,1.46,2.47,1.44C1367.59,461.33,1368.98,461.57,1368.42,461.75z"/>
		<path class="st11" d="M1364.71,461.92c0,0-1.24,0.6-1.58,1.1s-0.63,1.61-0.58,1.93"/>
		<path class="st11" d="M1362.35,466.84c0,0-0.22,2.28,0,4.11c0.22,1.84,0.59,2.94,1.28,3.38"/>
		<path class="st11" d="M1367.5,473.17c0,0,0.68-0.72,0.58-2.58s-0.49-2.4-1.91-3.55c-1.42-1.15-3.31-2.28-4.51-2.25
			c-1.2,0.02-0.04,0.64,0.88,1.96c0.91,1.32,0.72,2.11,0.72,3.67s0.05,3.05,1.21,3.29"/>
		<path class="st11" d="M1362.1,469.44c0,0-0.59-1.42-1.39-2.25c-0.81-0.83-1.59-1.4-2.84-1.4c-1.08,0-1.57-0.16-0.58,1.48
			c0.16,0.26,0.35,0.56,0.58,0.92c1.71,2.62,1.31,2.57,1.31,2.57"/>
		<path class="st11" d="M1358.31,468.88c0,0-2.65-0.26-3.87,0s-0.63,0.97,0.53,1.98s1.38,1.1,1.78,2.2"/>
		<path class="st11" d="M1359.62,472.57c0,0-1.12-0.56-2.07,0.07c-0.96,0.64-1.96,1.69-1.96,1.69"/>
		<path class="st11" d="M1363.17,476.99c0,0-0.47,1.14-1.8,0.69c-1.32-0.46-1.28-0.98-2.48-1.16"/>
		<path class="st11" d="M1362.06,480.58c0,0,0.61-1.19-0.91-1.82s-2.66-1.31-2.66-1.31"/>
		<path class="st11" d="M1356.79,478.03c0,0-1.08,1.98-3.33,3.27c-2.25,1.29-2.64,1.72-2.15,0.08c0.48-1.64-0.4-2.02,0.48-3
			s1.8-1.39,1.8-1.39"/>
		<path class="st11" d="M1359.62,483.18c0,0-1.4,0.95-2.02-0.26c-0.62-1.21-2.28-2.96-2.28-2.96"/>
		<path class="st11" d="M1358.18,484.8c0,0-0.56,0.34-1.71,0.39s-1.32,0.23-0.88-1.49c0.44-1.72,0.17-3.12,0.17-3.12"/>
		<path class="st11" d="M1353.03,481.55c0,0,0.01,0.6,0.4,1.09s1.84,0.54,2.38-0.28"/>
		<path class="st11" d="M1362.1,484.08c0,0-0.73-0.1-1.98,0.6c-1.25,0.7-1.77,0.08-1.77,0.08"/>
		<path class="st11" d="M1355.46,483.64c0,0-1.89,0.84-2.26,1.37c-0.36,0.54-0.75,1.31-0.75,1.31"/>
	</g>
	<g>
		<polyline class="st6" points="1355.79,478.88 1355.79,490.81 1367.25,490.81 1367.25,473.46 		"/>
		<rect x="1353.46" y="490.81" class="st6" width="16.19" height="0.85"/>
		<path class="st7" d="M1353.55,473.82c0,0,0,2.79,0.96,3.92c0.96,1.14,2,0.96,3.51,2.1c1.51,1.14,2.41,1.89,2.48,0.65
			s1.48-3.55,0.62-5.61c-0.86-2.07-3-3.17-3-3.17"/>
		<path class="st7" d="M1356.65,462.59c0,0-4.06,0.9-5.37,3.34c-1.31,2.44-1.51,4.23-0.45,5.78c1.07,1.55,1.89,1.96,2,2.44
			s1.38-0.93,2.96-1.41s3.2-0.93,3.17-2.89c-0.03-1.96-0.89-2.96-1.48-4.75s-0.66-2.51-0.66-2.51s1.79-0.45,2.86,0
			c1.07,0.45,0.9-0.17,3.2-0.03c2.31,0.14,3.68-0.48,4.37,1.24c0.69,1.72,0.24,2.44,0,3.2c-0.24,0.76-0.55,0.1-2.69-0.76
			c-2.13-0.86-3.03-0.07-4.06-1.38c-1.03-1.31-1.1-2.25-1.1-2.25"/>
		<path class="st7" d="M1350.83,466.85c-0.83-0.22-2.72,0.02-4.06,1.08c-1.34,1.07-0.62,3.3-0.62,3.3s0.59-0.62,1.93-0.62
			c1.34,0,2.25,0.09,2.25,0.09"/>
		<path class="st7" d="M1364.39,459.15c0,0,0.55-1.86,1.79-2.72c1.24-0.86,2.1-1.62,3.99-1.38c1.89,0.24,2.1,0.83,4.23,1.51
			c2.13,0.69,2.24,0.62,0.9,1.48c-1.34,0.86-2.1,2.96-3.86,3.82s-4.2,0.98-5.09,0.52c-0.9-0.46-1.82-2.11-1.96-2.83
			c-0.14-0.72-1.51-0.19-2.1,0.33c-0.59,0.52-1.19,2.74-1.19,2.74"/>
		<path class="st7" d="M1374.69,462.08c0,0,0.86-1.34,2.38-0.96c1.51,0.38,3.2,0.76,3.61,2.72c0.41,1.96,0.28,3.1,0.59,5.34
			s-0.69,3.03-0.69,3.03s0.41-0.72-0.76-1.62s-3.89-0.76-4.92-2.55c-1.03-1.79-1.72-3.44-1.24-4.54c0.48-1.1,0.45-1.58,0.03-1.69
			c-0.41-0.1-1.78-0.2-1.78-0.2"/>
		<path class="st7" d="M1361.4,465.56c0,0-1.34,0.47-1.28,2.13s-0.1,2.96,0.98,4.03c1.08,1.07,2.6,2.89,2.7,3.96
			c0.1,1.07-0.28,3.17,0.59,2.03c0.86-1.14,1.24-3.03,2.65-4.06s1.15-3,0.57-4.13c-0.57-1.14-1.56-2.57-1.56-2.57"/>
		<path class="st7" d="M1367.38,466.62l0.87,0.69c0,0,0.62-0.48,1.34-0.69c0.72-0.21,1.93-0.31,2.89,0.69
			c0.96,1,2.24,1.27,1.93,3.48s-0.04,3.13,0.05,4.41c0.09,1.27-0.39,1.17-1.42,0.41c-1.03-0.76-2.82-0.45-3.75-1.69
			c-0.93-1.24-1.21-2.3-1.21-2.3"/>
		<path class="st7" d="M1367.62,469.51c0,0-0.01-1.07,0.25-1.48s0.38-0.72,0.38-0.72"/>
		<path class="st7" d="M1358.5,462.4c0,0,1.26,1.17,1.19,2.44c-0.08,1.27-0.23,3.5-0.23,3.5"/>
		<path class="st7" d="M1358.84,468.79c0,0,0.11-0.44,1.28-0.65"/>
		<path class="st7" d="M1361.11,474.54c0,0,0.34-0.54,0-1.37c-0.34-0.83-0.34-1.85-0.34-1.85"/>
	</g>
	<path class="st6" d="M691.84,631.4c0.22-2.65,0.38-5.72,0.38-9.2c0-10.49-4.03-18.64-4.03-21.36s0.62-3.22,0.62-3.22
		s-0.99,0.4-5.77,0.87s-8.25-1.93-18.19-1.39s-15.66,2.23-19.31,1.76s-4.66-0.88-4.66-0.88s1.57,3.08,0.11,6.97
		c-3.14,8.34-3.48,18.94-2.72,27.75c0.76,8.81-0.83,14.09-0.83,14.09s2.56-0.22,7.53-0.41c1.36-0.05,2.98-0.01,4.79,0.06"/>
	<g>
		<path class="st6" d="M771.27,589.17c0,0,4.37,0.25,6.35,3.59s3.03,8.45,4.59,12.94c1.57,4.49,3.55,12.11,3.76,15.55
			c0.21,3.44,2.09,7.62,2.51,9.81c0.42,2.19,0,2.61,0.21,4.38c0.21,1.77,0.35,5.78,0.35,5.78s1.53,0.84,3.69,0.77
			s6.89-0.42,6.89-0.42s0.35-5.22,0.35-5.85c0-0.63,0.7,0.35,0.49-4.31c-0.21-4.66,0-18.65,0-24.36c0-5.71-1.95-11.41-2.57-12.39
			c-0.63-0.97-4.52-2.92-7.79-4.63c-3.27-1.71-12.87-1.49-15.24-1.51s-4.31,0.15-6.05,1.19c-1.74,1.04-3.62-0.77-5.64-2.02
			s-5.29-0.49-6.89,0s-2.99,1.32-5.36,0.7c-2.37-0.63-5.36,1.32-5.36,1.32s4.04,0.9,4.94,1.74s1.6,2.64,1.25,4.59
			c-0.35,1.95,0.14,6.61-0.63,11.62s0.07,13.29,0.77,16.07s3.34,8.14,3.62,9.88c0.28,1.74,1.18,6.19,1.81,7.03s2.71,1.18,4.52,0.97
			c1.81-0.21,3.76-0.63,5.01-1.25s1.32-0.97,0.9-2.23c-0.42-1.25-2.02-7.86-2.02-7.86s-1.81-0.28-4.8-0.7
			c-2.99-0.42-5.5-0.84-6.12-0.84s0-0.9,0-2.44s0.14-13.01-0.07-16.35c-0.21-3.34-0.56-8.91-1.53-11.48
			c-0.97-2.57-1.12-4.02-1.12-4.02"/>
		<path class="st6" d="M753.41,596.57c0,0,1.83,8.61,3.76,11.01s3.44,5.64,4.91,7.93s3.97,3.08,4.96,8.3
			c0.99,5.22,3.34,8.98,3.34,8.98s2.19,0.52,5.48,0.47c3.29-0.05,3.86-0.73,5.38,0.47c1.51,1.2,2.77,1.51,4.44,1.62
			c1.67,0.1,3.08,0.57,3.08,0.57"/>
		<path class="st6" d="M765.72,630.3c0,0,1.43,0.25,2.43,0.19c1-0.06,1.15,0.26,1.15,0.26"/>
		<path class="st6" d="M775.19,590.4c0,0,0.8,2.01,0.45,3.3c-0.35,1.29-0.17,3.48-0.45,4.84s0,8.11,0,8.11s-0.18,3.37-1.57,3.62
			c-1.39,0.24-2.57,0.31-3.72-1.32c-1.15-1.64-2.82-6.37-2.82-6.37"/>
		<path class="st6" d="M780.95,601.71c0,0,0.57,3.4-0.48,6.39c-1.04,2.99-2.3,6.4-2.37,8.77c-0.07,2.37-0.56,4.94-0.56,4.94"/>
		<path class="st6" d="M790.91,594.88c0,0,0.97,4.7,2.3,5.51s2.78,1.03,3.2,4.02c0.42,2.99,0.49,4.59,1.25,6.68s1.88,5.29,1.46,7.72
			c-0.42,2.44,1.24,8.21,1.24,8.21"/>
		<path class="st6" d="M753.9,588.47c0,0,2.99,0.46,3.93,1.33s2.16,2.82,3.34,4.91c1.18,2.09,3.24,7,3.24,7"/>
		<path class="st6" d="M769.93,592.72c0,0,1.91,1.53,2.19,3.34c0.28,1.81,0.7,4.07,1.11,5.98"/>
		<path class="st6" d="M755.79,635.29c0,0,5.02,0.08,7.08-0.35s3.73-1.06,3.73-1.06"/>
		<path class="st6" d="M788.73,634.58c0,0,1.89,0.51,4.77,0.71c2.88,0.2,6.46,0.44,6.46,0.44"/>
	</g>
	<rect x="1186.69" y="600.47" class="st6" width="13.6" height="2.41"/>
	<path class="st6" d="M1196.67,600.47h-6.37c-0.95,0-1.72-0.78-1.72-1.72v-14.07c0-0.95,0.78-1.72,1.72-1.72h6.37
		c0.95,0,1.72,0.78,1.72,1.72v14.07C1198.4,599.69,1197.62,600.47,1196.67,600.47z"/>
	<circle class="st6" cx="1193.49" cy="584.16" r="0.25"/>
	<path class="st6" d="M1205,608.5c0,0,2.43,7.32,1.79,16.47s1.53,15.4,4.47,18.72c2.94,3.32,6.68,7.66,7.74,12.51
		c1.06,4.85,6.87,10.95,7.16,15.45s-1.43,3.48-1.86,8.36"/>
	<path class="st6" d="M1198.4,598.74c0,0,2.89,0.29,3.65,1.72s1.01,2.41,1.01,2.41"/>
	<rect x="1071.02" y="613.44" class="st6" width="66.18" height="22.58"/>
	<rect x="1071.02" y="636.12" class="st6" width="66.18" height="22.58"/>
	<rect x="1071.02" y="658.81" class="st6" width="66.18" height="22.58"/>
	<polyline class="st6" points="1095.49,613.44 1098.29,616.24 1109.95,616.24 1112.73,613.45 	"/>
	<polyline class="st6" points="1095.49,636.12 1098.29,638.93 1109.95,638.93 1112.73,636.14 	"/>
	<polyline class="st6" points="1095.49,658.7 1098.29,661.5 1109.95,661.5 1112.73,658.71 	"/>
	<rect x="976.36" y="651.91" class="st6" width="16.58" height="1.73"/>
	<polygon class="st6" points="977.54,659.92 976.93,653.65 992.43,653.65 991.86,659.92 	"/>
	<rect x="1340.06" y="588.56" class="st6" width="11.44" height="1.39"/>
	<polygon class="st6" points="1340.87,602.88 1340.45,589.96 1351.14,589.96 1350.75,602.88 	"/>
	<polyline class="st7" points="1340.93,588.56 1340.45,584.13 1341.6,584.01 1342.07,588.56 	"/>
	<polyline class="st7" points="1348.9,588.72 1349.56,585.63 1348.39,585.36 1347.75,588.66 	"/>
	<polyline class="st7" points="1344.87,588.56 1344.99,587.7 1345.78,586.51 1346.02,587.85 1345.9,588.56 	"/>
	<polyline class="st7" points="1204.64,554.3 1209.94,554.54 1209.39,567.1 1197.1,566.55 1197.65,553.99 1202.63,554.21 	"/>
	
		<rect x="1202.65" y="550.68" transform="matrix(0.9936 -0.1128 0.1128 0.9936 -54.7548 139.2542)" class="st7" width="2.01" height="5.98"/>
</g>
</svg>
