<svg xmlns="http://www.w3.org/2000/svg" viewBox="0 0 100 100"><defs><style>.a{fill:#fff;}</style></defs><rect class="a" x="45.03" y="14.45" width="25.18" height="3.24" transform="translate(28.24 -36.04) rotate(45)"/><rect class="a" x="29.52" y="14.45" width="25.18" height="3.24" transform="translate(83.26 -2.34) rotate(135)"/><rect class="a" x="35.09" y="23.77" width="29.7" height="3.24" transform="translate(75.33 -24.55) rotate(90)"/><rect class="a" x="71.29" y="40.7" width="25.18" height="3.24" transform="translate(113.26 131.56) rotate(-135)"/><rect class="a" x="71.29" y="56.22" width="25.18" height="3.24" transform="translate(184.09 39.43) rotate(135)"/><rect class="a" x="59.71" y="48.39" width="29.7" height="3.24" transform="translate(149.13 100.03) rotate(-180)"/><rect class="a" x="3.49" y="56.05" width="25.18" height="3.24" transform="translate(45.49 5.52) rotate(45)"/><rect class="a" x="3.49" y="40.54" width="25.18" height="3.24" transform="translate(-25.1 23.72) rotate(-45)"/><rect class="a" x="10.55" y="48.36" width="29.7" height="3.24"/><rect class="a" x="29.74" y="82.3" width="25.18" height="3.24" transform="translate(12.92 173.2) rotate(-135)"/><rect class="a" x="45.25" y="82.3" width="25.18" height="3.24" transform="translate(-42.4 65.48) rotate(-45)"/><rect class="a" x="35.17" y="72.99" width="29.7" height="3.24" transform="translate(-24.59 124.63) rotate(-90)"/></svg>